<?xml version="1.0" encoding="UTF-8" standalone="no"?><svg xmlns="http://www.w3.org/2000/svg" xmlns:xlink="http://www.w3.org/1999/xlink" contentScriptType="application/ecmascript" contentStyleType="text/css" height="1393px" preserveAspectRatio="none" style="width:2130px;height:1393px;" version="1.1" viewBox="0 0 2130 1393" width="2130px" zoomAndPan="magnify"><defs><filter height="300%" id="fdbkm3fa1uuav" width="300%" x="-1" y="-1"><feGaussianBlur result="blurOut" stdDeviation="2.0"/><feColorMatrix in="blurOut" result="blurOut2" type="matrix" values="0 0 0 0 0 0 0 0 0 0 0 0 0 0 0 0 0 0 .4 0"/><feOffset dx="4.0" dy="4.0" in="blurOut2" result="blurOut3"/><feBlend in="SourceGraphic" in2="blurOut3" mode="normal"/></filter></defs><g><text fill="#000000" font-family="sans-serif" font-size="18" lengthAdjust="spacingAndGlyphs" textLength="217" x="959.5" y="16.708">DISTRIBUTED CUDS 3.0</text><!--MD5=[5bdf219cc3b76c81b283dcec53599e99]
cluster Local--><rect fill="#FFFFFF" filter="url(#fdbkm3fa1uuav)" height="695" style="stroke: #000000; stroke-width: 1.5;" width="1012" x="65" y="44.9531"/><text fill="#000000" font-family="sans-serif" font-size="14" font-weight="bold" lengthAdjust="spacingAndGlyphs" textLength="41" x="550.5" y="59.9482">Local</text><!--MD5=[81182d4e37400e7ce59e0ea61b9510ca]
cluster Local.SemanticLayer--><rect fill="#FFFFFF" filter="url(#fdbkm3fa1uuav)" height="201" style="stroke: #000000; stroke-width: 1.5;" width="172" x="89" y="361.9531"/><text fill="#000000" font-family="sans-serif" font-size="14" font-weight="bold" lengthAdjust="spacingAndGlyphs" textLength="116" x="117" y="376.9482">SemanticLayer</text><!--MD5=[1b86c21c4cf157ba27272efa1850b22a]
cluster Local.TransportLayerClient--><rect fill="#FFFFFF" filter="url(#fdbkm3fa1uuav)" height="628" style="stroke: #000000; stroke-width: 1.5;" width="749" x="304" y="87.9531"/><text fill="#000000" font-family="sans-serif" font-size="14" font-weight="bold" lengthAdjust="spacingAndGlyphs" textLength="167" x="595" y="102.9482">TransportLayerClient</text><!--MD5=[d7f06cc0994be04fdc63ab5d20b301e2]
cluster Remote--><rect fill="#FFFFFF" filter="url(#fdbkm3fa1uuav)" height="594" style="stroke: #000000; stroke-width: 1.5;" width="1788" x="22" y="788.9531"/><text fill="#000000" font-family="sans-serif" font-size="14" font-weight="bold" lengthAdjust="spacingAndGlyphs" textLength="60" x="886" y="803.9482">Remote</text><!--MD5=[af44552331e2dd5338fd794177890071]
cluster Remote.TransportLayerServer--><rect fill="#FFFFFF" filter="url(#fdbkm3fa1uuav)" height="214" style="stroke: #000000; stroke-width: 1.5;" width="980" x="806" y="831.9531"/><text fill="#000000" font-family="sans-serif" font-size="14" font-weight="bold" lengthAdjust="spacingAndGlyphs" textLength="175" x="1208.5" y="846.9482">TransportLayerServer</text><!--MD5=[b3a9fa9dddd7609ce7a1019e866400a1]
cluster Remote.InteroperabilityLayer--><rect fill="#FFFFFF" filter="url(#fdbkm3fa1uuav)" height="488.5" style="stroke: #000000; stroke-width: 1.5;" width="386" x="396" y="870.4531"/><text fill="#000000" font-family="sans-serif" font-size="14" font-weight="bold" lengthAdjust="spacingAndGlyphs" textLength="164" x="507" y="885.4482">InteroperabilityLayer</text><!--MD5=[08346ab912ec4f0a3a5d1b3214916ea1]
cluster Remote.SyntacticLayer--><rect fill="#FFFFFF" filter="url(#fdbkm3fa1uuav)" height="99" style="stroke: #000000; stroke-width: 1.5;" width="154" x="177" y="1105.9531"/><text fill="#000000" font-family="sans-serif" font-size="14" font-weight="bold" lengthAdjust="spacingAndGlyphs" textLength="116" x="196" y="1120.9482">SyntacticLayer</text><!--MD5=[c8c4d6eeccb331552cd612dc6960009f]
entity Local.User--><ellipse cx="175" cy="179.4531" fill="#FEFECE" filter="url(#fdbkm3fa1uuav)" rx="8" ry="8" style="stroke: #A80036; stroke-width: 2.0;"/><path d="M175,187.4531 L175,214.4531 M162,195.4531 L188,195.4531 M175,214.4531 L162,229.4531 M175,214.4531 L188,229.4531 " fill="none" filter="url(#fdbkm3fa1uuav)" style="stroke: #A80036; stroke-width: 2.0;"/><text fill="#000000" font-family="sans-serif" font-size="14" lengthAdjust="spacingAndGlyphs" textLength="32" x="159" y="249.4482">User</text><!--MD5=[6cc81bd8df0377fd02a7e53d30fcd244]
class Local.SemanticLayer.Cuds--><rect fill="#FEFECE" filter="url(#fdbkm3fa1uuav)" height="150.4375" id="Local.SemanticLayer.Cuds" style="stroke: #A80036; stroke-width: 1.5;" width="140" x="105" y="396.9531"/><ellipse cx="142.5" cy="412.9531" fill="#ADD1B2" rx="11" ry="11" style="stroke: #A80036; stroke-width: 1.0;"/><path d="M145.4688,418.5938 Q144.8906,418.8906 144.25,419.0391 Q143.6094,419.1875 142.9063,419.1875 Q140.4063,419.1875 139.0859,417.5391 Q137.7656,415.8906 137.7656,412.7656 Q137.7656,409.6406 139.0859,407.9844 Q140.4063,406.3281 142.9063,406.3281 Q143.6094,406.3281 144.2578,406.4844 Q144.9063,406.6406 145.4688,406.9375 L145.4688,409.6563 Q144.8438,409.0781 144.25,408.8047 Q143.6563,408.5313 143.0313,408.5313 Q141.6875,408.5313 141,409.6016 Q140.3125,410.6719 140.3125,412.7656 Q140.3125,414.8594 141,415.9297 Q141.6875,417 143.0313,417 Q143.6563,417 144.25,416.7266 Q144.8438,416.4531 145.4688,415.875 L145.4688,418.5938 Z "/><text fill="#000000" font-family="sans-serif" font-size="12" lengthAdjust="spacingAndGlyphs" textLength="31" x="161.5" y="417.1074">Cuds</text><rect fill="#FFFFFF" height="15.9688" style="stroke: #000000; stroke-width: 1.0; stroke-dasharray: 2.0,2.0;" width="25" x="223" y="393.9531"/><text fill="#000000" font-family="sans-serif" font-size="12" font-style="italic" lengthAdjust="spacingAndGlyphs" textLength="23" x="224" y="406.0918">dict</text><line style="stroke: #A80036; stroke-width: 1.5;" x1="106" x2="244" y1="428.9531" y2="428.9531"/><text fill="#000000" font-family="sans-serif" font-size="11" lengthAdjust="spacingAndGlyphs" textLength="95" x="111" y="443.1636">Session session</text><text fill="#000000" font-family="sans-serif" font-size="11" lengthAdjust="spacingAndGlyphs" textLength="55" x="111" y="455.9683">UUID uuid</text><text fill="#000000" font-family="sans-serif" font-size="11" lengthAdjust="spacingAndGlyphs" textLength="87" x="111" y="468.7729">CUBA cuba_key</text><line style="stroke: #A80036; stroke-width: 1.0;" x1="106" x2="244" y1="475.3672" y2="475.3672"/><text fill="#000000" font-family="sans-serif" font-size="11" lengthAdjust="spacingAndGlyphs" textLength="70" x="111" y="489.5776">add() : Cuds</text><text fill="#000000" font-family="sans-serif" font-size="11" lengthAdjust="spacingAndGlyphs" textLength="67" x="111" y="502.3823">get() : Cuds</text><text fill="#000000" font-family="sans-serif" font-size="11" lengthAdjust="spacingAndGlyphs" textLength="86" x="111" y="515.187">remove() : void</text><text fill="#000000" font-family="sans-serif" font-size="11" lengthAdjust="spacingAndGlyphs" textLength="82" x="111" y="527.9917">update() : void</text><text fill="#000000" font-family="sans-serif" font-size="11" lengthAdjust="spacingAndGlyphs" textLength="128" x="111" y="540.7964">iter() : Iterator&lt;Cuds&gt;</text><!--MD5=[1b40677fbb6de06bd7b4b29d8df92f2b]
class Local.TransportLayerClient.Registry--><rect fill="#FEFECE" filter="url(#fdbkm3fa1uuav)" height="48" id="Local.TransportLayerClient.Registry" style="stroke: #A80036; stroke-width: 1.5;" width="109" x="442.5" y="638.9531"/><ellipse cx="457.5" cy="654.9531" fill="#ADD1B2" rx="11" ry="11" style="stroke: #A80036; stroke-width: 1.0;"/><path d="M460.4688,660.5938 Q459.8906,660.8906 459.25,661.0391 Q458.6094,661.1875 457.9063,661.1875 Q455.4063,661.1875 454.0859,659.5391 Q452.7656,657.8906 452.7656,654.7656 Q452.7656,651.6406 454.0859,649.9844 Q455.4063,648.3281 457.9063,648.3281 Q458.6094,648.3281 459.2578,648.4844 Q459.9063,648.6406 460.4688,648.9375 L460.4688,651.6563 Q459.8438,651.0781 459.25,650.8047 Q458.6563,650.5313 458.0313,650.5313 Q456.6875,650.5313 456,651.6016 Q455.3125,652.6719 455.3125,654.7656 Q455.3125,656.8594 456,657.9297 Q456.6875,659 458.0313,659 Q458.6563,659 459.25,658.7266 Q459.8438,658.4531 460.4688,657.875 L460.4688,660.5938 Z "/><text fill="#000000" font-family="sans-serif" font-size="12" lengthAdjust="spacingAndGlyphs" textLength="50" x="471.5" y="659.1074">Registry</text><rect fill="#FFFFFF" height="15.9688" style="stroke: #000000; stroke-width: 1.0; stroke-dasharray: 2.0,2.0;" width="25" x="529.5" y="635.9531"/><text fill="#000000" font-family="sans-serif" font-size="12" font-style="italic" lengthAdjust="spacingAndGlyphs" textLength="23" x="530.5" y="648.0918">dict</text><line style="stroke: #A80036; stroke-width: 1.5;" x1="443.5" x2="550.5" y1="670.9531" y2="670.9531"/><line style="stroke: #A80036; stroke-width: 1.5;" x1="443.5" x2="550.5" y1="678.9531" y2="678.9531"/><!--MD5=[ca03f90622cbeb5211e337baf8fcd5b4]
class Local.TransportLayerClient.StorageSession--><rect fill="#FEFECE" filter="url(#fdbkm3fa1uuav)" height="176.0469" id="Local.TransportLayerClient.StorageSession" style="stroke: #A80036; stroke-width: 1.5;" width="189" x="402.5" y="122.9531"/><ellipse cx="443.6" cy="138.9531" fill="#A9DCDF" rx="11" ry="11" style="stroke: #A80036; stroke-width: 1.0;"/><path d="M443.7094,134.2969 L442.5531,139.375 L444.8813,139.375 L443.7094,134.2969 Z M442.225,132.0625 L445.2094,132.0625 L448.5688,144.4531 L446.1156,144.4531 L445.35,141.3906 L442.0688,141.3906 L441.3188,144.4531 L438.8813,144.4531 L442.225,132.0625 Z "/><text fill="#000000" font-family="sans-serif" font-size="12" font-style="italic" lengthAdjust="spacingAndGlyphs" textLength="99" x="463.4" y="143.1074">StorageSession</text><line style="stroke: #A80036; stroke-width: 1.5;" x1="403.5" x2="590.5" y1="154.9531" y2="154.9531"/><text fill="#000000" font-family="sans-serif" font-size="11" lengthAdjust="spacingAndGlyphs" textLength="66" x="408.5" y="169.1636">List expired</text><text fill="#000000" font-family="sans-serif" font-size="11" lengthAdjust="spacingAndGlyphs" textLength="59" x="408.5" y="181.9683">List added</text><text fill="#000000" font-family="sans-serif" font-size="11" lengthAdjust="spacingAndGlyphs" textLength="70" x="408.5" y="194.7729">List updated</text><text fill="#000000" font-family="sans-serif" font-size="11" lengthAdjust="spacingAndGlyphs" textLength="74" x="408.5" y="207.5776">List removed</text><line style="stroke: #A80036; stroke-width: 1.0;" x1="403.5" x2="590.5" y1="214.1719" y2="214.1719"/><ellipse cx="413.5" cy="225.1719" fill="#84BE84" rx="3" ry="3" style="stroke: #038048; stroke-width: 1.0;"/><text fill="#000000" font-family="sans-serif" font-size="11" lengthAdjust="spacingAndGlyphs" textLength="163" x="422.5" y="228.3823">load(*uids) : Iterator&lt;Cuds&gt;</text><ellipse cx="413.5" cy="237.9766" fill="#84BE84" rx="3" ry="3" style="stroke: #038048; stroke-width: 1.0;"/><text fill="#000000" font-family="sans-serif" font-size="11" lengthAdjust="spacingAndGlyphs" textLength="155" x="422.5" y="241.187">expire(*cuds_or_uids): void</text><ellipse cx="413.5" cy="250.7813" fill="#84BE84" rx="3" ry="3" style="stroke: #038048; stroke-width: 1.0;"/><text fill="#000000" font-family="sans-serif" font-size="11" lengthAdjust="spacingAndGlyphs" textLength="93" x="422.5" y="253.9917">expire_all(): void</text><ellipse cx="413.5" cy="263.5859" fill="#84BE84" rx="3" ry="3" style="stroke: #038048; stroke-width: 1.0;"/><text fill="#000000" font-family="sans-serif" font-size="11" lengthAdjust="spacingAndGlyphs" textLength="156" x="422.5" y="266.7964">refresh(cuds_or_uids): void</text><ellipse cx="413.5" cy="276.3906" fill="#84BE84" rx="3" ry="3" style="stroke: #038048; stroke-width: 1.0;"/><text fill="#000000" font-family="sans-serif" font-size="11" lengthAdjust="spacingAndGlyphs" textLength="140" x="422.5" y="279.6011">store(cuds_object) : void</text><ellipse cx="413.5" cy="289.1953" fill="#84BE84" rx="3" ry="3" style="stroke: #038048; stroke-width: 1.0;"/><text fill="#000000" font-family="sans-serif" font-size="11" lengthAdjust="spacingAndGlyphs" textLength="69" x="422.5" y="292.4058">close(): void</text><!--MD5=[0a8f10ec1a3d09930db01e88e7de6320]
class Local.TransportLayerClient.TransportSessionClient--><rect fill="#FEFECE" filter="url(#fdbkm3fa1uuav)" height="150.4375" id="Local.TransportLayerClient.TransportSessionClient" style="stroke: #A80036; stroke-width: 1.5;" width="354" x="320" y="396.9531"/><ellipse cx="420.25" cy="412.9531" fill="#ADD1B2" rx="11" ry="11" style="stroke: #A80036; stroke-width: 1.0;"/><path d="M423.2188,418.5938 Q422.6406,418.8906 422,419.0391 Q421.3594,419.1875 420.6563,419.1875 Q418.1563,419.1875 416.8359,417.5391 Q415.5156,415.8906 415.5156,412.7656 Q415.5156,409.6406 416.8359,407.9844 Q418.1563,406.3281 420.6563,406.3281 Q421.3594,406.3281 422.0078,406.4844 Q422.6563,406.6406 423.2188,406.9375 L423.2188,409.6563 Q422.5938,409.0781 422,408.8047 Q421.4063,408.5313 420.7813,408.5313 Q419.4375,408.5313 418.75,409.6016 Q418.0625,410.6719 418.0625,412.7656 Q418.0625,414.8594 418.75,415.9297 Q419.4375,417 420.7813,417 Q421.4063,417 422,416.7266 Q422.5938,416.4531 423.2188,415.875 L423.2188,418.5938 Z "/><text fill="#000000" font-family="sans-serif" font-size="12" lengthAdjust="spacingAndGlyphs" textLength="145" x="440.75" y="417.1074">TransportSessionClient</text><line style="stroke: #A80036; stroke-width: 1.5;" x1="321" x2="673" y1="428.9531" y2="428.9531"/><text fill="#000000" font-family="sans-serif" font-size="11" lengthAdjust="spacingAndGlyphs" textLength="200" x="326" y="443.1636">CommunicationEngineClient engine</text><text fill="#000000" font-family="sans-serif" font-size="11" lengthAdjust="spacingAndGlyphs" textLength="103" x="326" y="455.9683">Class session_cls</text><text fill="#000000" font-family="sans-serif" font-size="11" lengthAdjust="spacingAndGlyphs" textLength="50" x="326" y="468.7729">List args</text><text fill="#000000" font-family="sans-serif" font-size="11" lengthAdjust="spacingAndGlyphs" textLength="66" x="326" y="481.5776">Dict kwargs</text><line style="stroke: #A80036; stroke-width: 1.0;" x1="321" x2="673" y1="488.1719" y2="488.1719"/><ellipse cx="331" cy="499.1719" fill="#84BE84" rx="3" ry="3" style="stroke: #038048; stroke-width: 1.0;"/><text fill="#000000" font-family="sans-serif" font-size="11" lengthAdjust="spacingAndGlyphs" textLength="288" x="340" y="502.3823">any_method_of_session_cls(*args, **kwargs): Any</text><rect fill="#F24D5C" height="6" style="stroke: #C82930; stroke-width: 1.0;" width="6" x="328" y="508.9766"/><text fill="#000000" font-family="sans-serif" font-size="11" lengthAdjust="spacingAndGlyphs" textLength="289" x="340" y="515.187">load_from_backend(uids, expired): Iterator&lt;Cuds&gt;</text><rect fill="#F24D5C" height="6" style="stroke: #C82930; stroke-width: 1.0;" width="6" x="328" y="521.7813"/><text fill="#000000" font-family="sans-serif" font-size="11" lengthAdjust="spacingAndGlyphs" textLength="328" x="340" y="527.9917">send(command, consume_buffers, *args, **kwargs): Any</text><rect fill="#F24D5C" height="6" style="stroke: #C82930; stroke-width: 1.0;" width="6" x="328" y="534.5859"/><text fill="#000000" font-family="sans-serif" font-size="11" lengthAdjust="spacingAndGlyphs" textLength="102" x="340" y="540.7964">recieve(data): Any</text><!--MD5=[8ac8972cbbece0021cf99899319ea215]
entity Local.TransportLayerClient.CUDSIntermediateRepresentation--><polygon fill="#FEFECE" filter="url(#fdbkm3fa1uuav)" points="783,453.9531,783,490.25,1037,490.25,1037,463.9531,1027,453.9531,783,453.9531" style="stroke: #000000; stroke-width: 1.5;"/><path d="M1027,453.9531 L1027,463.9531 L1037,463.9531 " fill="#FEFECE" style="stroke: #000000; stroke-width: 1.5;"/><text fill="#000000" font-family="sans-serif" font-size="14" lengthAdjust="spacingAndGlyphs" textLength="234" x="793" y="476.9482">CUDSIntermediateRepresentation</text><!--MD5=[0e4472ab1c945847c956360bdd9675a3]
class Local.TransportLayerClient.CommunicationEngineClient--><rect fill="#FEFECE" filter="url(#fdbkm3fa1uuav)" height="73.6094" id="Local.TransportLayerClient.CommunicationEngineClient" style="stroke: #A80036; stroke-width: 1.5;" width="206" x="825" y="625.9531"/><ellipse cx="840" cy="641.9531" fill="#ADD1B2" rx="11" ry="11" style="stroke: #A80036; stroke-width: 1.0;"/><path d="M842.9688,647.5938 Q842.3906,647.8906 841.75,648.0391 Q841.1094,648.1875 840.4063,648.1875 Q837.9063,648.1875 836.5859,646.5391 Q835.2656,644.8906 835.2656,641.7656 Q835.2656,638.6406 836.5859,636.9844 Q837.9063,635.3281 840.4063,635.3281 Q841.1094,635.3281 841.7578,635.4844 Q842.4063,635.6406 842.9688,635.9375 L842.9688,638.6563 Q842.3438,638.0781 841.75,637.8047 Q841.1563,637.5313 840.5313,637.5313 Q839.1875,637.5313 838.5,638.6016 Q837.8125,639.6719 837.8125,641.7656 Q837.8125,643.8594 838.5,644.9297 Q839.1875,646 840.5313,646 Q841.1563,646 841.75,645.7266 Q842.3438,645.4531 842.9688,644.875 L842.9688,647.5938 Z "/><text fill="#000000" font-family="sans-serif" font-size="12" lengthAdjust="spacingAndGlyphs" textLength="174" x="854" y="646.1074">CommunicationEngineClient</text><line style="stroke: #A80036; stroke-width: 1.5;" x1="826" x2="1030" y1="657.9531" y2="657.9531"/><line style="stroke: #A80036; stroke-width: 1.0;" x1="826" x2="1030" y1="665.9531" y2="665.9531"/><ellipse cx="836" cy="676.9531" fill="#84BE84" rx="3" ry="3" style="stroke: #038048; stroke-width: 1.0;"/><text fill="#000000" font-family="sans-serif" font-size="11" lengthAdjust="spacingAndGlyphs" textLength="160" x="845" y="680.1636">send(command, data) : void</text><ellipse cx="836" cy="689.7578" fill="#84BE84" rx="3" ry="3" style="stroke: #038048; stroke-width: 1.0;"/><text fill="#000000" font-family="sans-serif" font-size="11" lengthAdjust="spacingAndGlyphs" textLength="73" x="845" y="692.9683">close() : void</text><!--MD5=[7b7c0f6b3da347fc6c97bb90b0986c7f]
entity Remote.Engine--><path d="M38,1152.4531 C38,1142.4531 72,1142.4531 72,1142.4531 C72,1142.4531 106,1142.4531 106,1152.4531 L106,1177.75 C106,1187.75 72,1187.75 72,1187.75 C72,1187.75 38,1187.75 38,1177.75 L38,1152.4531 " fill="#FEFECE" filter="url(#fdbkm3fa1uuav)" style="stroke: #000000; stroke-width: 1.5;"/><path d="M38,1152.4531 C38,1162.4531 72,1162.4531 72,1162.4531 C72,1162.4531 106,1162.4531 106,1152.4531 " fill="none" style="stroke: #000000; stroke-width: 1.5;"/><text fill="#000000" font-family="sans-serif" font-size="14" lengthAdjust="spacingAndGlyphs" textLength="48" x="48" y="1179.4482">Engine</text><!--MD5=[50a970a31f550872e6229e1b3e70edee]
class Remote.TransportLayerServer.CommunicationEngineServer--><rect fill="#FEFECE" filter="url(#fdbkm3fa1uuav)" height="86.4141" id="Remote.TransportLayerServer.CommunicationEngineServer" style="stroke: #A80036; stroke-width: 1.5;" width="211" x="822.5" y="905.4531"/><ellipse cx="837.5" cy="921.4531" fill="#ADD1B2" rx="11" ry="11" style="stroke: #A80036; stroke-width: 1.0;"/><path d="M840.4688,927.0938 Q839.8906,927.3906 839.25,927.5391 Q838.6094,927.6875 837.9063,927.6875 Q835.4063,927.6875 834.0859,926.0391 Q832.7656,924.3906 832.7656,921.2656 Q832.7656,918.1406 834.0859,916.4844 Q835.4063,914.8281 837.9063,914.8281 Q838.6094,914.8281 839.2578,914.9844 Q839.9063,915.1406 840.4688,915.4375 L840.4688,918.1563 Q839.8438,917.5781 839.25,917.3047 Q838.6563,917.0313 838.0313,917.0313 Q836.6875,917.0313 836,918.1016 Q835.3125,919.1719 835.3125,921.2656 Q835.3125,923.3594 836,924.4297 Q836.6875,925.5 838.0313,925.5 Q838.6563,925.5 839.25,925.2266 Q839.8438,924.9531 840.4688,924.375 L840.4688,927.0938 Z "/><text fill="#000000" font-family="sans-serif" font-size="12" lengthAdjust="spacingAndGlyphs" textLength="179" x="851.5" y="925.6074">CommunicationEngineServer</text><line style="stroke: #A80036; stroke-width: 1.5;" x1="823.5" x2="1032.5" y1="937.4531" y2="937.4531"/><line style="stroke: #A80036; stroke-width: 1.0;" x1="823.5" x2="1032.5" y1="945.4531" y2="945.4531"/><ellipse cx="833.5" cy="956.4531" fill="#84BE84" rx="3" ry="3" style="stroke: #038048; stroke-width: 1.0;"/><text fill="#000000" font-family="sans-serif" font-size="11" lengthAdjust="spacingAndGlyphs" textLength="121" x="842.5" y="959.6636">startListening() : void</text><rect fill="#F24D5C" height="6" style="stroke: #C82930; stroke-width: 1.0;" width="6" x="830.5" y="966.2578"/><text fill="#000000" font-family="sans-serif" font-size="11" lengthAdjust="spacingAndGlyphs" textLength="164" x="842.5" y="972.4683">serve(websocket, path): void</text><text fill="#000000" font-family="sans-serif" font-size="11" lengthAdjust="spacingAndGlyphs" textLength="0" x="846.5" y="985.2729"/><!--MD5=[f6be7d9169e23438933d405319fffb6b]
entity Remote.TransportLayerServer.CUDSIntermediateRepresentation--><polygon fill="#FEFECE" filter="url(#fdbkm3fa1uuav)" points="1142,930.4531,1142,966.75,1396,966.75,1396,940.4531,1386,930.4531,1142,930.4531" style="stroke: #000000; stroke-width: 1.5;"/><path d="M1386,930.4531 L1386,940.4531 L1396,940.4531 " fill="#FEFECE" style="stroke: #000000; stroke-width: 1.5;"/><text fill="#000000" font-family="sans-serif" font-size="14" lengthAdjust="spacingAndGlyphs" textLength="234" x="1152" y="953.4482">CUDSIntermediateRepresentation</text><!--MD5=[75e18f21b0bf94a7251b2fff419009aa]
class Remote.TransportLayerServer.TransportSessionServer--><rect fill="#FEFECE" filter="url(#fdbkm3fa1uuav)" height="163.2422" id="Remote.TransportLayerServer.TransportSessionServer" style="stroke: #A80036; stroke-width: 1.5;" width="287" x="1482.5" y="866.9531"/><ellipse cx="1546.75" cy="882.9531" fill="#ADD1B2" rx="11" ry="11" style="stroke: #A80036; stroke-width: 1.0;"/><path d="M1549.7188,888.5938 Q1549.1406,888.8906 1548.5,889.0391 Q1547.8594,889.1875 1547.1563,889.1875 Q1544.6563,889.1875 1543.3359,887.5391 Q1542.0156,885.8906 1542.0156,882.7656 Q1542.0156,879.6406 1543.3359,877.9844 Q1544.6563,876.3281 1547.1563,876.3281 Q1547.8594,876.3281 1548.5078,876.4844 Q1549.1563,876.6406 1549.7188,876.9375 L1549.7188,879.6563 Q1549.0938,879.0781 1548.5,878.8047 Q1547.9063,878.5313 1547.2813,878.5313 Q1545.9375,878.5313 1545.25,879.6016 Q1544.5625,880.6719 1544.5625,882.7656 Q1544.5625,884.8594 1545.25,885.9297 Q1545.9375,887 1547.2813,887 Q1547.9063,887 1548.5,886.7266 Q1549.0938,886.4531 1549.7188,885.875 L1549.7188,888.5938 Z "/><text fill="#000000" font-family="sans-serif" font-size="12" lengthAdjust="spacingAndGlyphs" textLength="150" x="1567.25" y="887.1074">TransportSessionServer</text><line style="stroke: #A80036; stroke-width: 1.5;" x1="1483.5" x2="1768.5" y1="898.9531" y2="898.9531"/><text fill="#000000" font-family="sans-serif" font-size="11" lengthAdjust="spacingAndGlyphs" textLength="230" x="1488.5" y="913.1636">CommunicationEngineServer comFacility</text><text fill="#000000" font-family="sans-serif" font-size="11" lengthAdjust="spacingAndGlyphs" textLength="103" x="1488.5" y="925.9683">Class session_cls</text><text fill="#000000" font-family="sans-serif" font-size="11" lengthAdjust="spacingAndGlyphs" textLength="246" x="1488.5" y="938.7729">Dict&lt;User, WrapperSession&gt; session_objs</text><line style="stroke: #A80036; stroke-width: 1.0;" x1="1483.5" x2="1768.5" y1="945.3672" y2="945.3672"/><ellipse cx="1493.5" cy="956.3672" fill="#84BE84" rx="3" ry="3" style="stroke: #038048; stroke-width: 1.0;"/><text fill="#000000" font-family="sans-serif" font-size="11" lengthAdjust="spacingAndGlyphs" textLength="121" x="1502.5" y="959.5776">startListening() : void</text><ellipse cx="1493.5" cy="969.1719" fill="#84BE84" rx="3" ry="3" style="stroke: #038048; stroke-width: 1.0;"/><text fill="#000000" font-family="sans-serif" font-size="11" lengthAdjust="spacingAndGlyphs" textLength="170" x="1502.5" y="972.3823">handle_disconnect(user): void</text><ellipse cx="1493.5" cy="981.9766" fill="#84BE84" rx="3" ry="3" style="stroke: #038048; stroke-width: 1.0;"/><text fill="#000000" font-family="sans-serif" font-size="11" lengthAdjust="spacingAndGlyphs" textLength="261" x="1502.5" y="985.187">handle_request(command, data, user): String</text><rect fill="#F24D5C" height="6" style="stroke: #C82930; stroke-width: 1.0;" width="6" x="1490.5" y="991.7813"/><text fill="#000000" font-family="sans-serif" font-size="11" lengthAdjust="spacingAndGlyphs" textLength="254" x="1502.5" y="997.9917">run_command(data, command, user): String</text><rect fill="#F24D5C" height="6" style="stroke: #C82930; stroke-width: 1.0;" width="6" x="1490.5" y="1004.5859"/><text fill="#000000" font-family="sans-serif" font-size="11" lengthAdjust="spacingAndGlyphs" textLength="217" x="1502.5" y="1010.7964">load_from_session(data, user): String</text><rect fill="#F24D5C" height="6" style="stroke: #C82930; stroke-width: 1.0;" width="6" x="1490.5" y="1017.3906"/><text fill="#000000" font-family="sans-serif" font-size="11" lengthAdjust="spacingAndGlyphs" textLength="177" x="1502.5" y="1023.6011">init_session(data, user): String</text><!--MD5=[16ca93d5a75c0c542c9bfd96e1ec357c]
class Remote.InteroperabilityLayer.Registry--><rect fill="#FEFECE" filter="url(#fdbkm3fa1uuav)" height="48" id="Remote.InteroperabilityLayer.Registry" style="stroke: #A80036; stroke-width: 1.5;" width="109" x="656.5" y="1140.9531"/><ellipse cx="671.5" cy="1156.9531" fill="#ADD1B2" rx="11" ry="11" style="stroke: #A80036; stroke-width: 1.0;"/><path d="M674.4688,1162.5938 Q673.8906,1162.8906 673.25,1163.0391 Q672.6094,1163.1875 671.9063,1163.1875 Q669.4063,1163.1875 668.0859,1161.5391 Q666.7656,1159.8906 666.7656,1156.7656 Q666.7656,1153.6406 668.0859,1151.9844 Q669.4063,1150.3281 671.9063,1150.3281 Q672.6094,1150.3281 673.2578,1150.4844 Q673.9063,1150.6406 674.4688,1150.9375 L674.4688,1153.6563 Q673.8438,1153.0781 673.25,1152.8047 Q672.6563,1152.5313 672.0313,1152.5313 Q670.6875,1152.5313 670,1153.6016 Q669.3125,1154.6719 669.3125,1156.7656 Q669.3125,1158.8594 670,1159.9297 Q670.6875,1161 672.0313,1161 Q672.6563,1161 673.25,1160.7266 Q673.8438,1160.4531 674.4688,1159.875 L674.4688,1162.5938 Z "/><text fill="#000000" font-family="sans-serif" font-size="12" lengthAdjust="spacingAndGlyphs" textLength="50" x="685.5" y="1161.1074">Registry</text><rect fill="#FFFFFF" height="15.9688" style="stroke: #000000; stroke-width: 1.0; stroke-dasharray: 2.0,2.0;" width="25" x="743.5" y="1137.9531"/><text fill="#000000" font-family="sans-serif" font-size="12" font-style="italic" lengthAdjust="spacingAndGlyphs" textLength="23" x="744.5" y="1150.0918">dict</text><line style="stroke: #A80036; stroke-width: 1.5;" x1="657.5" x2="764.5" y1="1172.9531" y2="1172.9531"/><line style="stroke: #A80036; stroke-width: 1.5;" x1="657.5" x2="764.5" y1="1180.9531" y2="1180.9531"/><!--MD5=[8bda536e9dac630a138d2df2f85e3c79]
class Remote.InteroperabilityLayer.Session--><rect fill="#FEFECE" filter="url(#fdbkm3fa1uuav)" height="86.4141" id="Remote.InteroperabilityLayer.Session" style="stroke: #A80036; stroke-width: 1.5;" width="189" x="412.5" y="905.4531"/><ellipse cx="478.25" cy="921.4531" fill="#A9DCDF" rx="11" ry="11" style="stroke: #A80036; stroke-width: 1.0;"/><path d="M478.3594,916.7969 L477.2031,921.875 L479.5313,921.875 L478.3594,916.7969 Z M476.875,914.5625 L479.8594,914.5625 L483.2188,926.9531 L480.7656,926.9531 L480,923.8906 L476.7188,923.8906 L475.9688,926.9531 L473.5313,926.9531 L476.875,914.5625 Z "/><text fill="#000000" font-family="sans-serif" font-size="12" font-style="italic" lengthAdjust="spacingAndGlyphs" textLength="49" x="498.75" y="925.6074">Session</text><line style="stroke: #A80036; stroke-width: 1.5;" x1="413.5" x2="600.5" y1="937.4531" y2="937.4531"/><line style="stroke: #A80036; stroke-width: 1.0;" x1="413.5" x2="600.5" y1="945.4531" y2="945.4531"/><ellipse cx="423.5" cy="956.4531" fill="#84BE84" rx="3" ry="3" style="stroke: #038048; stroke-width: 1.0;"/><text fill="#000000" font-family="sans-serif" font-size="11" lengthAdjust="spacingAndGlyphs" textLength="140" x="432.5" y="959.6636">store(cuds_object) : void</text><ellipse cx="423.5" cy="969.2578" fill="#84BE84" rx="3" ry="3" style="stroke: #038048; stroke-width: 1.0;"/><text fill="#000000" font-family="sans-serif" font-size="11" lengthAdjust="spacingAndGlyphs" textLength="163" x="432.5" y="972.4683">load(*uids) : Iterator&lt;Cuds&gt;</text><ellipse cx="423.5" cy="982.0625" fill="#84BE84" rx="3" ry="3" style="stroke: #038048; stroke-width: 1.0;"/><text fill="#000000" font-family="sans-serif" font-size="11" lengthAdjust="spacingAndGlyphs" textLength="69" x="432.5" y="985.2729">close(): void</text><!--MD5=[3febb9121cca23deb9bcebe1c6ef284e]
class Remote.InteroperabilityLayer.WrapperSession--><rect fill="#FEFECE" filter="url(#fdbkm3fa1uuav)" height="112.0234" id="Remote.InteroperabilityLayer.WrapperSession" style="stroke: #A80036; stroke-width: 1.5;" width="148" x="412" y="1108.9531"/><ellipse cx="433.3" cy="1124.9531" fill="#A9DCDF" rx="11" ry="11" style="stroke: #A80036; stroke-width: 1.0;"/><path d="M433.4094,1120.2969 L432.2531,1125.375 L434.5813,1125.375 L433.4094,1120.2969 Z M431.925,1118.0625 L434.9094,1118.0625 L438.2688,1130.4531 L435.8156,1130.4531 L435.05,1127.3906 L431.7688,1127.3906 L431.0188,1130.4531 L428.5813,1130.4531 L431.925,1118.0625 Z "/><text fill="#000000" font-family="sans-serif" font-size="12" font-style="italic" lengthAdjust="spacingAndGlyphs" textLength="102" x="448.7" y="1129.1074">WrapperSession</text><line style="stroke: #A80036; stroke-width: 1.5;" x1="413" x2="559" y1="1140.9531" y2="1140.9531"/><text fill="#000000" font-family="sans-serif" font-size="11" lengthAdjust="spacingAndGlyphs" textLength="59" x="418" y="1155.1636">List added</text><text fill="#000000" font-family="sans-serif" font-size="11" lengthAdjust="spacingAndGlyphs" textLength="70" x="418" y="1167.9683">List updated</text><text fill="#000000" font-family="sans-serif" font-size="11" lengthAdjust="spacingAndGlyphs" textLength="74" x="418" y="1180.7729">List removed</text><text fill="#000000" font-family="sans-serif" font-size="11" lengthAdjust="spacingAndGlyphs" textLength="136" x="418" y="1193.5776">SyntacticLayer syntactic</text><text fill="#000000" font-family="sans-serif" font-size="11" lengthAdjust="spacingAndGlyphs" textLength="8" x="418" y="1206.3823">--</text><line style="stroke: #A80036; stroke-width: 1.5;" x1="413" x2="559" y1="1212.9766" y2="1212.9766"/><!--MD5=[a081ffd4e9855e34a7d33550b18cb85f]
class Remote.InteroperabilityLayer.___--><rect fill="#FEFECE" filter="url(#fdbkm3fa1uuav)" height="60.8047" id="Remote.InteroperabilityLayer.___" style="stroke: #A80036; stroke-width: 1.5;" width="50" x="461" y="1281.9531"/><ellipse cx="476" cy="1297.9531" fill="#ADD1B2" rx="11" ry="11" style="stroke: #A80036; stroke-width: 1.0;"/><path d="M478.9688,1303.5938 Q478.3906,1303.8906 477.75,1304.0391 Q477.1094,1304.1875 476.4063,1304.1875 Q473.9063,1304.1875 472.5859,1302.5391 Q471.2656,1300.8906 471.2656,1297.7656 Q471.2656,1294.6406 472.5859,1292.9844 Q473.9063,1291.3281 476.4063,1291.3281 Q477.1094,1291.3281 477.7578,1291.4844 Q478.4063,1291.6406 478.9688,1291.9375 L478.9688,1294.6563 Q478.3438,1294.0781 477.75,1293.8047 Q477.1563,1293.5313 476.5313,1293.5313 Q475.1875,1293.5313 474.5,1294.6016 Q473.8125,1295.6719 473.8125,1297.7656 Q473.8125,1299.8594 474.5,1300.9297 Q475.1875,1302 476.5313,1302 Q477.1563,1302 477.75,1301.7266 Q478.3438,1301.4531 478.9688,1300.875 L478.9688,1303.5938 Z "/><text fill="#000000" font-family="sans-serif" font-size="12" lengthAdjust="spacingAndGlyphs" textLength="18" x="490" y="1302.1074">___</text><line style="stroke: #A80036; stroke-width: 1.5;" x1="462" x2="510" y1="1313.9531" y2="1313.9531"/><text fill="#000000" font-family="sans-serif" font-size="11" lengthAdjust="spacingAndGlyphs" textLength="12" x="467" y="1328.1636">...</text><line style="stroke: #A80036; stroke-width: 1.5;" x1="462" x2="510" y1="1334.7578" y2="1334.7578"/><!--MD5=[9ea3d6e88a7bec98494cf124898d5b37]
class Remote.SyntacticLayer.SyntacticLayer--><rect fill="#FEFECE" filter="url(#fdbkm3fa1uuav)" height="48" id="Remote.SyntacticLayer.SyntacticLayer" style="stroke: #A80036; stroke-width: 1.5;" width="122" x="193" y="1140.9531"/><ellipse cx="208" cy="1156.9531" fill="#A9DCDF" rx="11" ry="11" style="stroke: #A80036; stroke-width: 1.0;"/><path d="M208.1094,1152.2969 L206.9531,1157.375 L209.2813,1157.375 L208.1094,1152.2969 Z M206.625,1150.0625 L209.6094,1150.0625 L212.9688,1162.4531 L210.5156,1162.4531 L209.75,1159.3906 L206.4688,1159.3906 L205.7188,1162.4531 L203.2813,1162.4531 L206.625,1150.0625 Z "/><text fill="#000000" font-family="sans-serif" font-size="12" font-style="italic" lengthAdjust="spacingAndGlyphs" textLength="90" x="222" y="1161.1074">SyntacticLayer</text><line style="stroke: #A80036; stroke-width: 1.5;" x1="194" x2="314" y1="1172.9531" y2="1172.9531"/><line style="stroke: #A80036; stroke-width: 1.5;" x1="194" x2="314" y1="1180.9531" y2="1180.9531"/><path d="M1093,642.9531 L1093,658.9531 L1031.12,662.9531 L1093,666.9531 L1093,683.2188 A0,0 0 0 0 1093,683.2188 L1531,683.2188 A0,0 0 0 0 1531,683.2188 L1531,652.9531 L1521,642.9531 L1093,642.9531 A0,0 0 0 0 1093,642.9531 " fill="#FBFB77" filter="url(#fdbkm3fa1uuav)" style="stroke: #A80036; stroke-width: 1.0;"/><path d="M1521,642.9531 L1521,652.9531 L1531,652.9531 L1521,642.9531 " fill="#FBFB77" style="stroke: #A80036; stroke-width: 1.0;"/><text fill="#000000" font-family="sans-serif" font-size="13" lengthAdjust="spacingAndGlyphs" textLength="417" x="1099" y="660.02">Further data compression is possible, but must be compliant with</text><text fill="#000000" font-family="sans-serif" font-size="13" lengthAdjust="spacingAndGlyphs" textLength="211" x="1099" y="675.1528">the CommunicationEngineServer</text><path d="M1093,459.4531 L1093,467.9531 L1037.23,471.9531 L1093,475.9531 L1093,484.5859 A0,0 0 0 0 1093,484.5859 L1385,484.5859 A0,0 0 0 0 1385,484.5859 L1385,469.4531 L1375,459.4531 L1093,459.4531 A0,0 0 0 0 1093,459.4531 " fill="#FBFB77" filter="url(#fdbkm3fa1uuav)" style="stroke: #A80036; stroke-width: 1.0;"/><path d="M1375,459.4531 L1375,469.4531 L1385,469.4531 L1375,459.4531 " fill="#FBFB77" style="stroke: #A80036; stroke-width: 1.0;"/><text fill="#000000" font-family="sans-serif" font-size="13" lengthAdjust="spacingAndGlyphs" textLength="271" x="1099" y="476.52">CUDS represented in uniform JSON format</text><path d="M1826,935.9531 L1826,961.0859 L2118,961.0859 L2118,945.9531 L2108,935.9531 L1826,935.9531 " fill="#FBFB77" filter="url(#fdbkm3fa1uuav)" style="stroke: #A80036; stroke-width: 1.0;"/><path d="M2108,935.9531 L2108,945.9531 L2118,945.9531 L2108,935.9531 " fill="#FBFB77" style="stroke: #A80036; stroke-width: 1.0;"/><text fill="#000000" font-family="sans-serif" font-size="13" lengthAdjust="spacingAndGlyphs" textLength="271" x="1832" y="953.02">CUDS represented in uniform JSON format</text><!--MD5=[1f372d8179a0c7684d93aecc00f56587]
reverse link Local.TransportLayerClient.StorageSession to Local.TransportLayerClient.TransportSessionClient--><path d="M497,319.2931 C497,345.2631 497,372.4631 497,396.5431 " fill="none" id="Local.TransportLayerClient.StorageSession&lt;-Local.TransportLayerClient.TransportSessionClient" style="stroke: #A80036; stroke-width: 1.0; stroke-dasharray: 7.0,7.0;"/><polygon fill="none" points="490,319.2731,497,299.2731,504,319.2731,490,319.2731" style="stroke: #A80036; stroke-width: 1.0;"/><!--MD5=[abb93d41506a98d5bf01edb0ceb5de41]
reverse link Remote.InteroperabilityLayer.Session to Remote.InteroperabilityLayer.WrapperSession--><path d="M500.903,1011.7311 C497.894,1042.4661 494.296,1079.2181 491.389,1108.9091 " fill="none" id="Remote.InteroperabilityLayer.Session&lt;-Remote.InteroperabilityLayer.WrapperSession" style="stroke: #A80036; stroke-width: 1.0;"/><polygon fill="none" points="493.961,1010.7981,502.876,991.5751,507.894,1012.1621,493.961,1010.7981" style="stroke: #A80036; stroke-width: 1.0;"/><!--MD5=[09d4f2da1541a70281af6bd56162c2ed]
link Local.User to Local.SemanticLayer.Cuds--><path d="M175,252.7031 C175,289.8131 175,345.6431 175,391.5531 " fill="none" id="Local.User-&gt;Local.SemanticLayer.Cuds" style="stroke: #A80036; stroke-width: 1.0;"/><polygon fill="#A80036" points="175,396.8131,179,387.8131,175,391.8131,171,387.8131,175,396.8131" style="stroke: #A80036; stroke-width: 1.0;"/><text fill="#000000" font-family="sans-serif" font-size="13" lengthAdjust="spacingAndGlyphs" textLength="88" x="176" y="342.02">interacts_with</text><!--MD5=[e7fb0b1d253273c238252b4ce4b94a73]
link Local.SemanticLayer.Cuds to Local.TransportLayerClient.TransportSessionClient--><path d="M245.266,471.9531 C266.17,471.9531 290.104,471.9531 314.714,471.9531 " fill="none" id="Local.SemanticLayer.Cuds-&gt;Local.TransportLayerClient.TransportSessionClient" style="stroke: #A80036; stroke-width: 1.0;"/><polygon fill="#A80036" points="319.975,471.9531,310.975,467.9531,314.975,471.9531,310.975,475.9531,319.975,471.9531" style="stroke: #A80036; stroke-width: 1.0;"/><text fill="#000000" font-family="sans-serif" font-size="13" lengthAdjust="spacingAndGlyphs" textLength="38" x="263.5" y="465.02">has_a</text><!--MD5=[5ef2610101e67eacb0689575d2ab4552]
link Local.TransportLayerClient.TransportSessionClient to Local.TransportLayerClient.Registry--><path d="M497,547.1081 C497,577.4901 497,610.8171 497,633.7071 " fill="none" id="Local.TransportLayerClient.TransportSessionClient-&gt;Local.TransportLayerClient.Registry" style="stroke: #A80036; stroke-width: 1.0;"/><polygon fill="#A80036" points="497,638.7161,501,629.7161,497,633.7161,493,629.7161,497,638.7161" style="stroke: #A80036; stroke-width: 1.0;"/><text fill="#000000" font-family="sans-serif" font-size="13" lengthAdjust="spacingAndGlyphs" textLength="60" x="498" y="592.02">manages</text><!--MD5=[3b7a4ddb3068d3d86f645a426196cd48]
link Local.TransportLayerClient.TransportSessionClient to Local.TransportLayerClient.CUDSIntermediateRepresentation--><path d="M674.246,471.9531 C708.927,471.9531 744.732,471.9531 777.64,471.9531 " fill="none" id="Local.TransportLayerClient.TransportSessionClient-&gt;Local.TransportLayerClient.CUDSIntermediateRepresentation" style="stroke: #A80036; stroke-width: 1.0;"/><polygon fill="#A80036" points="782.896,471.9531,773.896,467.9531,777.896,471.9531,773.896,475.9531,782.896,471.9531" style="stroke: #A80036; stroke-width: 1.0;"/><text fill="#000000" font-family="sans-serif" font-size="13" lengthAdjust="spacingAndGlyphs" textLength="72" x="692.5" y="465.02">converts to</text><!--MD5=[d4ce9651556a6583a8d5530e9a37b8bf]
link Local.TransportLayerClient.CUDSIntermediateRepresentation to Local.TransportLayerClient.CommunicationEngineClient--><path d="M911.629,490.0591 C914.412,519.2781 920.157,579.5991 924.045,620.4281 " fill="none" id="Local.TransportLayerClient.CUDSIntermediateRepresentation-&gt;Local.TransportLayerClient.CommunicationEngineClient" style="stroke: #A80036; stroke-width: 1.0;"/><polygon fill="#A80036" points="924.557,625.8051,927.6852,616.4663,924.0827,620.8277,919.7213,617.2252,924.557,625.8051" style="stroke: #A80036; stroke-width: 1.0;"/><text fill="#000000" font-family="sans-serif" font-size="13" lengthAdjust="spacingAndGlyphs" textLength="50" x="922" y="592.02">used by</text><!--MD5=[e8c680f8e49aadb7907e78ec793e3c3a]
link Local.TransportLayerClient.CommunicationEngineClient to Remote.TransportLayerServer.CommunicationEngineServer--><path d="M928,705.1861 C928,756.8831 928,845.3221 928,899.8451 " fill="none" id="Local.TransportLayerClient.CommunicationEngineClient-Remote.TransportLayerServer.CommunicationEngineServer" style="stroke: #A80036; stroke-width: 1.0;"/><polygon fill="#A80036" points="928,905.0131,932,896.0131,928,900.0131,924,896.0131,928,905.0131" style="stroke: #A80036; stroke-width: 1.0;"/><polygon fill="#A80036" points="928,700.1461,924,709.1461,928,705.1461,932,709.1461,928,700.1461" style="stroke: #A80036; stroke-width: 1.0;"/><text fill="#000000" font-family="sans-serif" font-size="13" lengthAdjust="spacingAndGlyphs" textLength="139" x="929" y="769.02">exchange information</text><!--MD5=[3784e6ac1c48e5486bda2e683d6b491b]
link Remote.TransportLayerServer.CommunicationEngineServer to Remote.TransportLayerServer.CUDSIntermediateRepresentation--><path d="M1033.56,948.4531 C1066.19,948.4531 1102.54,948.4531 1136.73,948.4531 " fill="none" id="Remote.TransportLayerServer.CommunicationEngineServer-&gt;Remote.TransportLayerServer.CUDSIntermediateRepresentation" style="stroke: #A80036; stroke-width: 1.0;"/><polygon fill="#A80036" points="1141.76,948.4531,1132.76,944.4531,1136.76,948.4531,1132.76,952.4531,1141.76,948.4531" style="stroke: #A80036; stroke-width: 1.0;"/><text fill="#000000" font-family="sans-serif" font-size="13" lengthAdjust="spacingAndGlyphs" textLength="72" x="1051.75" y="941.52">converts to</text><!--MD5=[beead8c5f4005810ea212bc61c7009d6]
link Remote.TransportLayerServer.CUDSIntermediateRepresentation to Remote.TransportLayerServer.TransportSessionServer--><path d="M1396.12,948.4531 C1422.43,948.4531 1450.37,948.4531 1477.36,948.4531 " fill="none" id="Remote.TransportLayerServer.CUDSIntermediateRepresentation-&gt;Remote.TransportLayerServer.TransportSessionServer" style="stroke: #A80036; stroke-width: 1.0;"/><polygon fill="#A80036" points="1482.39,948.4531,1473.39,944.4531,1477.39,948.4531,1473.39,952.4531,1482.39,948.4531" style="stroke: #A80036; stroke-width: 1.0;"/><text fill="#000000" font-family="sans-serif" font-size="13" lengthAdjust="spacingAndGlyphs" textLength="50" x="1414.25" y="941.52">used by</text><!--MD5=[8c496c6451cf227afcf29668935d214d]
link Remote.TransportLayerServer.TransportSessionServer to Remote.InteroperabilityLayer.WrapperSession--><path d="M1482.44,1029.6741 C1460.08,1039.3681 1436.82,1047.9481 1414,1053.9531 C1080.36,1141.7591 974.757,1018.6341 639,1097.9531 C614.058,1103.8451 588.055,1113.5641 564.713,1123.7541 " fill="none" id="Remote.TransportLayerServer.TransportSessionServer-&gt;Remote.InteroperabilityLayer.WrapperSession" style="stroke: #A80036; stroke-width: 1.0;"/><polygon fill="#A80036" points="560.081,1125.7981,569.9298,1125.8278,564.6562,1123.7812,566.7028,1118.5076,560.081,1125.7981" style="stroke: #A80036; stroke-width: 1.0;"/><text fill="#000000" font-family="sans-serif" font-size="13" lengthAdjust="spacingAndGlyphs" textLength="51" x="1376" y="1075.02">controls</text><!--MD5=[36731b8eb7e4196c3c8348d297540f18]
link Remote.InteroperabilityLayer.WrapperSession to Remote.InteroperabilityLayer.Registry--><path d="M560.297,1164.9531 C589.82,1164.9531 623.326,1164.9531 651.236,1164.9531 " fill="none" id="Remote.InteroperabilityLayer.WrapperSession-&gt;Remote.InteroperabilityLayer.Registry" style="stroke: #A80036; stroke-width: 1.0;"/><polygon fill="#A80036" points="656.38,1164.9531,647.38,1160.9531,651.38,1164.9531,647.38,1168.9531,656.38,1164.9531" style="stroke: #A80036; stroke-width: 1.0;"/><text fill="#000000" font-family="sans-serif" font-size="13" lengthAdjust="spacingAndGlyphs" textLength="60" x="578.25" y="1158.02">manages</text><!--MD5=[deb566f24af7723b5af993ee35e89f56]
reverse link Remote.InteroperabilityLayer.WrapperSession to Remote.InteroperabilityLayer.___--><path d="M486,1241.1441 C486,1255.5261 486,1269.7821 486,1281.6581 " fill="none" id="Remote.InteroperabilityLayer.WrapperSession&lt;-Remote.InteroperabilityLayer.___" style="stroke: #A80036; stroke-width: 1.0;"/><polygon fill="none" points="479,1240.9601,486,1220.9601,493,1240.9601,479,1240.9601" style="stroke: #A80036; stroke-width: 1.0;"/><!--MD5=[f132caed0ad3f18f2ee99f6d60550e4e]
link Remote.InteroperabilityLayer.WrapperSession to Remote.SyntacticLayer.SyntacticLayer--><path d="M411.814,1182.5671 C405.98,1183.5241 400.158,1184.3421 394.5,1184.9531 C367.104,1187.9121 359.841,1188.3811 332.5,1184.9531 C328.575,1184.4611 324.565,1183.8361 320.537,1183.1121 " fill="none" id="Remote.InteroperabilityLayer.WrapperSession-&gt;Remote.SyntacticLayer.SyntacticLayer" style="stroke: #A80036; stroke-width: 1.0;"/><polygon fill="#A80036" points="315.428,1182.1461,323.5285,1187.748,320.341,1183.0747,325.0143,1179.8872,315.428,1182.1461" style="stroke: #A80036; stroke-width: 1.0;"/><text fill="#000000" font-family="sans-serif" font-size="13" lengthAdjust="spacingAndGlyphs" textLength="60" x="333.5" y="1181.02">manages</text><!--MD5=[16b7db5efe58bcfac1e2acf8178783da]
link Remote.SyntacticLayer.SyntacticLayer to Remote.Engine--><path d="M192.661,1164.9531 C165.855,1164.9531 135.194,1164.9531 111.488,1164.9531 " fill="none" id="Remote.SyntacticLayer.SyntacticLayer-&gt;Remote.Engine" style="stroke: #A80036; stroke-width: 1.0;"/><polygon fill="#A80036" points="106.233,1164.9531,115.233,1168.9531,111.233,1164.9531,115.233,1160.9531,106.233,1164.9531" style="stroke: #A80036; stroke-width: 1.0;"/><text fill="#000000" font-family="sans-serif" font-size="13" lengthAdjust="spacingAndGlyphs" textLength="50" x="124.5" y="1158.02">acts_on</text><!--MD5=[5bf44453a1151f2d484177a8893fa5ca]
link GMN220 to Remote.TransportLayerServer.CUDSIntermediateRepresentation--><path d="M1963.33,935.7411 C1938.25,900.2271 1861.4,800.2241 1768.5,764.4531 C1738.84,753.0341 1512.29,753.3881 1482.5,764.4531 C1391.22,798.3601 1312.84,890.7371 1282.46,930.1921 " fill="none" id="GMN220-Remote.TransportLayerServer.CUDSIntermediateRepresentation" style="stroke: #A80036; stroke-width: 1.0; stroke-dasharray: 7.0,7.0;"/><!--MD5=[2c4ae1b46bdca89e19de1d7a4252a064]
@startuml
  allow_mixing
  skinparam packageStyle rectangle
  title DISTRIBUTED CUDS 3.0

  namespace Local {
    actor User

    namespace SemanticLayer {

      class Cuds <dict> {
        Session session
        UUID uuid
        CUBA cuba_key
        - -
        add() : Cuds
        get() : Cuds
        remove() : void
        update() : void
        iter() : Iterator<Cuds>
      }
    }

    namespace TransportLayerClient {

        class Registry <dict> {

        }

          abstract class StorageSession {
            List expired
            List added
            List updated
            List removed
            - -
            +load(*uids) : Iterator<Cuds>
            +expire(*cuds_or_uids): void
            +expire_all(): void
            +refresh(cuds_or_uids): void
            +store(cuds_object) : void
            +close(): void
        }

        class TransportSessionClient  implements StorageSession {
            CommunicationEngineClient engine
            Class session_cls
            List args
            Dict kwargs
            - -
            +any_method_of_session_cls(*args, **kwargs): Any
            -load_from_backend(uids, expired): Iterator<Cuds>
            -send(command, consume_buffers, *args, **kwargs): Any
            -recieve(data): Any
        }

        file CUDSIntermediateRepresentation

        class CommunicationEngineClient {
            - -
            + send(command, data) : void
            + close() : void
        }
    }
  }

  namespace Remote {

    namespace TransportLayerServer {
        class CommunicationEngineServer {
            - -
            + startListening() : void
            - serve(websocket, path): void

        }

      file CUDSIntermediateRepresentation

      class TransportSessionServer {
          CommunicationEngineServer comFacility
          Class session_cls
          Dict<User, WrapperSession> session_objs
          - -
          +startListening() : void
          +handle_disconnect(user): void
          +handle_request(command, data, user): String
          -run_command(data, command, user): String
          -load_from_session(data, user): String
          -init_session(data, user): String
      }
    }

    namespace InteroperabilityLayer {

     class Registry <dict> {

      }

        abstract class Session {
          - -
          +store(cuds_object) : void
          +load(*uids) : Iterator<Cuds>
          +close(): void
        }

      abstract class WrapperSession extends Session {
        List added
        List updated
        List removed
        SyntacticLayer syntactic
        - -  
      }

      class ___ {
        ...
      }
    }

    namespace SyntacticLayer {
      abstract class SyntacticLayer {
      }
    }

    database Engine
  }


  Local.User - -> Local.SemanticLayer.Cuds : interacts_with
  Local.SemanticLayer.Cuds -r> Local.TransportLayerClient.TransportSessionClient : has_a
  Local.TransportLayerClient.TransportSessionClient - -> Local.TransportLayerClient.Registry : manages
  Local.TransportLayerClient.TransportSessionClient -> Local.TransportLayerClient.CUDSIntermediateRepresentation : converts to
  Local.TransportLayerClient.CUDSIntermediateRepresentation - -> Local.TransportLayerClient.CommunicationEngineClient : used by

  Local.TransportLayerClient.CommunicationEngineClient <- -> Remote.TransportLayerServer.CommunicationEngineServer : exchange information

  Remote.TransportLayerServer.CommunicationEngineServer -> Remote.TransportLayerServer.CUDSIntermediateRepresentation : converts to
  Remote.TransportLayerServer.CUDSIntermediateRepresentation -> Remote.TransportLayerServer.TransportSessionServer : used by
  Remote.TransportLayerServer.TransportSessionServer - -> Remote.InteroperabilityLayer.WrapperSession : controls
  Remote.InteroperabilityLayer.WrapperSession -> Remote.InteroperabilityLayer.Registry : manages
  Remote.InteroperabilityLayer.WrapperSession <|- - Remote.InteroperabilityLayer.___
  Remote.InteroperabilityLayer.WrapperSession -> Remote.SyntacticLayer.SyntacticLayer : manages
  Remote.SyntacticLayer.SyntacticLayer -> Remote.Engine : acts_on


  note left of Local.TransportLayerClient.CommunicationEngineClient
    Further data compression is possible, but must be compliant with
    the CommunicationEngineServer
  end note

  note left of Local.TransportLayerClient.CUDSIntermediateRepresentation
    CUDS represented in uniform JSON format
  end note

  note left of Remote.TransportLayerServer.CUDSIntermediateRepresentation
    CUDS represented in uniform JSON format
  end note
@enduml

PlantUML version 1.2019.11(Sun Sep 22 10:02:15 UTC 2019)
(GPL source distribution)
Java Runtime: OpenJDK Runtime Environment
JVM: OpenJDK 64-Bit Server VM
Java Version: 1.8.0_222-b10
Operating System: Linux
Default Encoding: UTF-8
Language: en
Country: null
--></g></svg>